<?xml version="1.0" encoding="UTF-8" standalone="no"?>
<!DOCTYPE svg PUBLIC "-//W3C//DTD SVG 1.1//EN"
 "http://www.w3.org/Graphics/SVG/1.1/DTD/svg11.dtd">
<!-- Generated by graphviz version 13.1.2 (0)
 -->
<!-- Pages: 1 -->
<svg width="282pt" height="188pt"
 viewBox="0.00 0.00 282.00 188.00" xmlns="http://www.w3.org/2000/svg" xmlns:xlink="http://www.w3.org/1999/xlink">
<g id="graph0" class="graph" transform="scale(1 1) rotate(0) translate(4 184)">
<polygon fill="white" stroke="none" points="-4,4 -4,-184 278,-184 278,4 -4,4"/>
<!-- ((1, 2), (3, 4)) -->
<g id="node1" class="node">
<title>((1, 2), (3, 4))</title>
<ellipse fill="none" stroke="black" cx="136" cy="-162" rx="63.12" ry="18"/>
<text xml:space="preserve" text-anchor="middle" x="136" y="-156.95" font-family="Times,serif" font-size="14.00">((1, 2), (3, 4))</text>
</g>
<!-- (1, 2) -->
<g id="node2" class="node">
<title>(1, 2)</title>
<ellipse fill="none" stroke="black" cx="96" cy="-90" rx="31.39" ry="18"/>
<text xml:space="preserve" text-anchor="middle" x="96" y="-84.95" font-family="Times,serif" font-size="14.00">(1, 2)</text>
</g>
<!-- ((1, 2), (3, 4))&#45;&gt;(1, 2) -->
<g id="edge1" class="edge">
<title>((1, 2), (3, 4))&#45;&gt;(1, 2)</title>
<path fill="none" stroke="black" d="M126.32,-144.05C121.73,-136.03 116.15,-126.26 111.03,-117.3"/>
<polygon fill="black" stroke="black" points="114.07,-115.57 106.07,-108.62 107.99,-119.04 114.07,-115.57"/>
</g>
<!-- (3, 4) -->
<g id="node5" class="node">
<title>(3, 4)</title>
<ellipse fill="none" stroke="black" cx="177" cy="-90" rx="31.39" ry="18"/>
<text xml:space="preserve" text-anchor="middle" x="177" y="-84.95" font-family="Times,serif" font-size="14.00">(3, 4)</text>
</g>
<!-- ((1, 2), (3, 4))&#45;&gt;(3, 4) -->
<g id="edge4" class="edge">
<title>((1, 2), (3, 4))&#45;&gt;(3, 4)</title>
<path fill="none" stroke="black" d="M145.92,-144.05C150.68,-135.94 156.47,-126.04 161.77,-117.01"/>
<polygon fill="black" stroke="black" points="164.65,-119.01 166.68,-108.61 158.61,-115.47 164.65,-119.01"/>
</g>
<!-- 1 -->
<g id="node3" class="node">
<title>1</title>
<ellipse fill="none" stroke="black" cx="27" cy="-18" rx="27" ry="18"/>
<text xml:space="preserve" text-anchor="middle" x="27" y="-12.95" font-family="Times,serif" font-size="14.00">1</text>
</g>
<!-- (1, 2)&#45;&gt;1 -->
<g id="edge2" class="edge">
<title>(1, 2)&#45;&gt;1</title>
<path fill="none" stroke="black" d="M81.03,-73.81C71.77,-64.42 59.72,-52.19 49.34,-41.67"/>
<polygon fill="black" stroke="black" points="52.05,-39.42 42.53,-34.76 47.06,-44.34 52.05,-39.42"/>
</g>
<!-- 2 -->
<g id="node4" class="node">
<title>2</title>
<ellipse fill="none" stroke="black" cx="99" cy="-18" rx="27" ry="18"/>
<text xml:space="preserve" text-anchor="middle" x="99" y="-12.95" font-family="Times,serif" font-size="14.00">2</text>
</g>
<!-- (1, 2)&#45;&gt;2 -->
<g id="edge3" class="edge">
<title>(1, 2)&#45;&gt;2</title>
<path fill="none" stroke="black" d="M96.74,-71.7C97.05,-64.41 97.43,-55.73 97.78,-47.54"/>
<polygon fill="black" stroke="black" points="101.27,-47.76 98.2,-37.62 94.28,-47.46 101.27,-47.76"/>
</g>
<!-- 3 -->
<g id="node6" class="node">
<title>3</title>
<ellipse fill="none" stroke="black" cx="175" cy="-18" rx="27" ry="18"/>
<text xml:space="preserve" text-anchor="middle" x="175" y="-12.95" font-family="Times,serif" font-size="14.00">3</text>
</g>
<!-- (3, 4)&#45;&gt;3 -->
<g id="edge5" class="edge">
<title>(3, 4)&#45;&gt;3</title>
<path fill="none" stroke="black" d="M176.51,-71.7C176.3,-64.41 176.05,-55.73 175.82,-47.54"/>
<polygon fill="black" stroke="black" points="179.32,-47.51 175.53,-37.62 172.32,-47.71 179.32,-47.51"/>
</g>
<!-- 4 -->
<g id="node7" class="node">
<title>4</title>
<ellipse fill="none" stroke="black" cx="247" cy="-18" rx="27" ry="18"/>
<text xml:space="preserve" text-anchor="middle" x="247" y="-12.95" font-family="Times,serif" font-size="14.00">4</text>
</g>
<!-- (3, 4)&#45;&gt;4 -->
<g id="edge6" class="edge">
<title>(3, 4)&#45;&gt;4</title>
<path fill="none" stroke="black" d="M192.19,-73.81C201.71,-64.29 214.14,-51.86 224.76,-41.24"/>
<polygon fill="black" stroke="black" points="227.13,-43.82 231.72,-34.28 222.18,-38.87 227.13,-43.82"/>
</g>
</g>
</svg>
