<?xml version="1.0" encoding="UTF-8" standalone="no"?>
<!DOCTYPE svg PUBLIC "-//W3C//DTD SVG 1.1//EN"
 "http://www.w3.org/Graphics/SVG/1.1/DTD/svg11.dtd">
<!-- Generated by graphviz version 8.1.0 (0)
 -->
<!-- Pages: 1 -->
<svg width="282pt" height="188pt"
 viewBox="0.00 0.00 282.00 188.00" xmlns="http://www.w3.org/2000/svg" xmlns:xlink="http://www.w3.org/1999/xlink">
<g id="graph0" class="graph" transform="scale(1 1) rotate(0) translate(4 184)">
<polygon fill="white" stroke="none" points="-4,4 -4,-184 278,-184 278,4 -4,4"/>
<!-- ((1, 2), (3, 4)) -->
<g id="node1" class="node">
<title>((1, 2), (3, 4))</title>
<ellipse fill="none" stroke="black" cx="136" cy="-162" rx="63.12" ry="18"/>
<text text-anchor="middle" x="136" y="-156.95" font-family="Times,serif" font-size="14.00">((1, 2), (3, 4))</text>
</g>
<!-- (1, 2) -->
<g id="node2" class="node">
<title>(1, 2)</title>
<ellipse fill="none" stroke="black" cx="96" cy="-90" rx="31.39" ry="18"/>
<text text-anchor="middle" x="96" y="-84.95" font-family="Times,serif" font-size="14.00">(1, 2)</text>
</g>
<!-- ((1, 2), (3, 4))&#45;&gt;(1, 2) -->
<g id="edge1" class="edge">
<title>((1, 2), (3, 4))&#45;&gt;(1, 2)</title>
<path fill="none" stroke="black" d="M126.32,-144.05C121.63,-135.85 115.9,-125.83 110.69,-116.71"/>
<polygon fill="black" stroke="black" points="113.32,-115.25 105.32,-108.31 107.24,-118.73 113.32,-115.25"/>
</g>
<!-- (3, 4) -->
<g id="node5" class="node">
<title>(3, 4)</title>
<ellipse fill="none" stroke="black" cx="177" cy="-90" rx="31.39" ry="18"/>
<text text-anchor="middle" x="177" y="-84.95" font-family="Times,serif" font-size="14.00">(3, 4)</text>
</g>
<!-- ((1, 2), (3, 4))&#45;&gt;(3, 4) -->
<g id="edge4" class="edge">
<title>((1, 2), (3, 4))&#45;&gt;(3, 4)</title>
<path fill="none" stroke="black" d="M145.92,-144.05C150.73,-135.85 156.6,-125.83 161.94,-116.71"/>
<polygon fill="black" stroke="black" points="165.41,-118.7 167.45,-108.31 159.37,-115.17 165.41,-118.7"/>
</g>
<!-- 1 -->
<g id="node3" class="node">
<title>1</title>
<ellipse fill="none" stroke="black" cx="27" cy="-18" rx="27" ry="18"/>
<text text-anchor="middle" x="27" y="-12.95" font-family="Times,serif" font-size="14.00">1</text>
</g>
<!-- (1, 2)&#45;&gt;1 -->
<g id="edge2" class="edge">
<title>(1, 2)&#45;&gt;1</title>
<path fill="none" stroke="black" d="M81.03,-73.81C71.68,-64.33 59.48,-51.95 49.04,-41.35"/>
<polygon fill="black" stroke="black" points="51.98,-39.34 42.47,-34.68 47,-44.26 51.98,-39.34"/>
</g>
<!-- 2 -->
<g id="node4" class="node">
<title>2</title>
<ellipse fill="none" stroke="black" cx="99" cy="-18" rx="27" ry="18"/>
<text text-anchor="middle" x="99" y="-12.95" font-family="Times,serif" font-size="14.00">2</text>
</g>
<!-- (1, 2)&#45;&gt;2 -->
<g id="edge3" class="edge">
<title>(1, 2)&#45;&gt;2</title>
<path fill="none" stroke="black" d="M96.74,-71.7C97.06,-64.24 97.44,-55.32 97.8,-46.97"/>
<polygon fill="black" stroke="black" points="101.34,-47.25 98.27,-37.1 94.34,-46.95 101.34,-47.25"/>
</g>
<!-- 3 -->
<g id="node6" class="node">
<title>3</title>
<ellipse fill="none" stroke="black" cx="175" cy="-18" rx="27" ry="18"/>
<text text-anchor="middle" x="175" y="-12.95" font-family="Times,serif" font-size="14.00">3</text>
</g>
<!-- (3, 4)&#45;&gt;3 -->
<g id="edge5" class="edge">
<title>(3, 4)&#45;&gt;3</title>
<path fill="none" stroke="black" d="M176.51,-71.7C176.29,-64.24 176.04,-55.32 175.8,-46.97"/>
<polygon fill="black" stroke="black" points="179.27,-47 175.49,-37.1 172.28,-47.2 179.27,-47"/>
</g>
<!-- 4 -->
<g id="node7" class="node">
<title>4</title>
<ellipse fill="none" stroke="black" cx="247" cy="-18" rx="27" ry="18"/>
<text text-anchor="middle" x="247" y="-12.95" font-family="Times,serif" font-size="14.00">4</text>
</g>
<!-- (3, 4)&#45;&gt;4 -->
<g id="edge6" class="edge">
<title>(3, 4)&#45;&gt;4</title>
<path fill="none" stroke="black" d="M192.19,-73.81C201.8,-64.2 214.39,-51.61 225.07,-40.93"/>
<polygon fill="black" stroke="black" points="227.2,-43.75 231.79,-34.21 222.25,-38.8 227.2,-43.75"/>
</g>
</g>
</svg>
